<svg width="171" height="171" viewBox="0 0 171 171" fill="none" xmlns="http://www.w3.org/2000/svg">
<g clip-path="url(#clip0_15_2)">
<rect width="171" height="171" fill="#050505"/>
<path d="M45.2237 107.947C43.6343 107.953 42.1208 107.963 40.6072 107.963C36.5908 107.964 33.4147 104.163 34.0913 100.126C34.8642 95.5139 35.6744 90.9085 36.4704 86.3006C36.4736 86.2822 36.5062 86.269 36.5498 86.2329C40.252 86.2329 43.9789 86.2329 47.7495 86.2329C47.1533 89.6906 46.565 93.1029 45.9615 96.6027C46.2554 96.6027 46.5001 96.6027 46.7448 96.6027C51.063 96.6029 55.3825 96.5366 59.6991 96.6232C63.5827 96.701 66.1401 93.9396 66.6623 90.7717C68.0916 82.1006 69.636 73.4491 71.1365 64.7902C71.2329 64.2343 71.3432 63.6809 71.466 63.0252C72.7612 63.0252 74.043 63.023 75.3248 63.0256C80.6988 63.0367 86.0727 63.0594 91.4466 63.0589C99.4197 63.0581 107.395 62.9268 115.366 63.0589C126.571 63.2446 135.238 71.6178 136.75 82.0969C138.467 93.9952 131.187 104.728 119.688 107.442C117.05 108.064 114.371 107.95 111.698 107.951C102.507 107.956 93.3153 107.949 84.1239 107.947C83.8495 107.947 83.5752 107.947 83.1589 107.947C84.6225 99.4759 86.0717 91.0883 87.5267 82.6664C91.265 82.6664 94.9662 82.6664 98.791 82.6664C97.9913 87.3156 97.1987 91.9239 96.3939 96.6033C96.6198 96.6033 96.766 96.6033 96.9123 96.6033C102.897 96.6041 108.882 96.598 114.867 96.6078C120.246 96.6166 124.132 92.9711 125.43 88.7891C127.554 81.948 122.601 74.588 115.579 74.462C107.803 74.3225 100.025 74.3908 92.2475 74.375C88.7121 74.3678 85.1767 74.3761 81.6413 74.3773C81.3669 74.3774 81.0925 74.3773 80.7543 74.3773C80.4189 76.3137 80.0906 78.2028 79.7644 80.0923C78.9954 84.5477 78.2976 89.0174 77.4435 93.4559C75.8698 101.634 69.245 107.468 60.9606 107.907C57.5655 108.086 54.1542 107.951 50.7502 107.955C48.9333 107.957 47.1164 107.95 45.2237 107.947Z" fill="#F59E0B"/>
<g filter="url(#filter0_f_15_2)">
<circle cx="29" cy="16" r="102" fill="url(#paint0_linear_15_2)" fill-opacity="0.2"/>
</g>
</g>
<defs>
<filter id="filter0_f_15_2" x="-274" y="-287" width="606" height="606" filterUnits="userSpaceOnUse" color-interpolation-filters="sRGB">
<feFlood flood-opacity="0" result="BackgroundImageFix"/>
<feBlend mode="normal" in="SourceGraphic" in2="BackgroundImageFix" result="shape"/>
<feGaussianBlur stdDeviation="100.5" result="effect1_foregroundBlur_15_2"/>
</filter>
<linearGradient id="paint0_linear_15_2" x1="116.255" y1="-59.2857" x2="29" y2="118" gradientUnits="userSpaceOnUse">
<stop stop-color="#F59E0B"/>
<stop offset="1" stop-color="#000000"/>
</linearGradient>
<clipPath id="clip0_15_2">
<rect width="171" height="171" fill="white"/>
</clipPath>
</defs>
</svg>
