<svg width="70" height="70" viewBox="0 0 70 70" fill="none" xmlns="http://www.w3.org/2000/svg">
<path fill-rule="evenodd" clip-rule="evenodd" d="M56.2856 47.0189C55.8213 45.4758 55.1228 44.0131 54.2148 42.6818C53.1308 41.1471 51.9552 39.6793 50.6943 38.2864C51.8668 37.8489 52.8439 37.0147 53.4593 35.9268C53.8574 35.1788 54.0824 34.351 54.1178 33.5044C54.1531 32.6578 53.9979 31.8141 53.6635 31.0356C54.1166 30.8411 54.5346 30.5883 54.9177 30.2772C55.8562 29.2545 56.3985 27.9301 56.4466 26.5428C56.4947 25.1555 56.0456 23.7967 55.1802 22.7114C55.8618 22.3403 56.4153 21.7719 56.7682 21.0807C57.1211 20.3895 57.2569 19.6078 57.1577 18.8381C56.795 17.8734 56.2272 16.999 55.4935 16.2754C54.7598 15.5517 53.8776 14.9961 52.9081 14.6468C52.34 14.3693 51.7434 14.1541 51.1289 14.0051C50.532 13.8301 49.9214 13.7135 49.2973 13.6551C47.4306 13.6299 45.5668 13.6979 43.706 13.8593L41.7868 14.0343C41.6119 13.9276 41.4261 13.8396 41.2327 13.7718L38.526 13.0718C37.7677 13.0718 37.0093 12.751 36.2248 12.6635C35.6335 12.6183 35.0397 12.6183 34.4485 12.6635C32.7467 12.9897 31.1309 13.665 29.7031 14.6468C26.4714 16.7993 22.5427 20.0601 21.3498 21.081C20.5039 21.7022 19.486 22.0581 18.436 22.0989H12.8768C12.7672 22.091 12.6571 22.1053 12.5531 22.1409C12.4492 22.1766 12.3534 22.2329 12.2717 22.3064C12.19 22.3799 12.124 22.4692 12.0776 22.5689C12.0313 22.6685 12.0055 22.7765 12.0018 22.8864C11.9944 22.9996 12.0097 23.1132 12.047 23.2204C12.0844 23.3275 12.1428 23.4261 12.219 23.5102C12.2952 23.5943 12.3876 23.6622 12.4906 23.7099C12.5936 23.7575 12.7051 23.784 12.8185 23.7876C15.076 24.0881 17.3568 24.1843 19.6318 24.0793C20.7438 23.9639 21.8119 23.5839 22.7468 22.971C23.9398 22.1835 27.1423 19.856 30.1114 17.9951C31.4764 16.9451 33.0281 16.1664 34.6818 15.6939C35.0707 15.6511 35.4596 15.6511 35.8485 15.6939C36.5456 15.6939 37.2456 15.9564 37.9135 16.0731L40.0106 16.6856C40.8273 16.9772 41.4077 17.2951 41.5243 17.8201C41.641 18.3451 41.2327 18.666 40.5618 19.1297C39.7885 19.7186 38.9093 20.1533 37.9718 20.4101C36.9199 20.6629 35.8524 20.8282 34.7693 20.906C34.3959 20.9286 34.0462 21.0967 33.7953 21.3743C33.5445 21.6519 33.4125 22.0167 33.4277 22.3906C33.4568 22.6239 33.4568 22.8572 33.4277 23.0906C33.5865 25.0946 32.973 27.0835 31.7127 28.6497C30.1027 30.3395 27.926 31.376 25.5993 31.5606C25.4726 31.575 25.3499 31.6145 25.2386 31.6767C25.1272 31.739 25.0293 31.8227 24.9506 31.9231C24.8719 32.0236 24.8139 32.1386 24.7801 32.2616C24.7463 32.3847 24.7372 32.5132 24.7535 32.6397C24.7747 32.8615 24.8746 33.0685 25.0351 33.223C25.1956 33.3776 25.4061 33.4697 25.6285 33.4826C24.4035 35.0839 23.2689 36.7143 22.1927 38.4031C20.8802 40.47 19.6863 42.605 18.611 44.8081C17.837 46.4499 17.2038 48.1545 16.7181 49.9035C16.3647 51.1095 16.1302 52.3472 16.0181 53.5989C15.9292 55.462 16.269 57.3206 17.0113 59.0317C17.7536 60.7429 18.8786 62.2609 20.2998 63.4689C24.2729 66.9504 29.204 69.1522 34.4485 69.7864C39.7235 70.4875 45.0839 69.4666 49.7318 66.8756C52.0541 65.4508 53.9638 63.4438 55.2714 61.0536C56.5791 58.6634 57.2394 55.9729 57.1868 53.2489C57.23 52.188 57.1714 51.1253 57.0118 50.0756C56.83 49.043 56.5895 48.0223 56.2856 47.0189ZM51.2748 34.5589C50.8907 35.0532 50.3578 35.4108 49.7548 35.5788C49.1519 35.7469 48.5108 35.7165 47.9264 35.4922C46.0047 35.3215 44.1595 34.6585 42.5685 33.5672C42.1594 33.3337 41.8262 32.9873 41.609 32.5693C41.3917 32.1513 41.2995 31.6796 41.3435 31.2106C41.4386 30.7968 41.6397 30.4149 41.9268 30.1022L42.1602 29.9301C42.7902 30.2607 43.4416 30.5426 44.1143 30.776C45.6855 31.3106 47.3184 31.6428 48.9735 31.7647C49.9516 31.8172 50.9218 31.7589 51.8843 31.5897C52.0157 32.0986 52.0288 32.6307 51.9226 33.1454C51.8165 33.6601 51.5968 34.1436 51.2748 34.5589ZM53.0481 28.0372C52.654 28.2626 52.2166 28.4018 51.7648 28.4456C50.9014 28.5331 50.0381 28.5331 49.1748 28.4456C47.7771 28.3176 46.3939 28.0638 45.0418 27.6872C44.3156 27.5326 43.6034 27.318 42.9127 27.0456C43.4085 26.611 42.7698 25.0389 43.2043 24.1376C43.3716 23.6399 43.6146 23.1829 43.9335 22.7668C45.0156 23.3881 46.1998 23.811 47.4277 24.021C49.2536 24.389 51.1347 24.389 52.9606 24.021L53.3689 23.8751C53.7539 24.4176 53.9931 25.0476 54.066 25.7097C54.0825 26.1496 53.9992 26.5874 53.8224 26.9905C53.6457 27.3936 53.3828 27.7514 53.0481 28.0372ZM48.7431 16.4814L51.6539 17.5576C52.5727 17.9193 53.3718 18.5347 53.9552 19.3339C54.2177 19.7131 53.9552 20.0922 53.2843 20.5268L52.2956 21.0518C50.8606 21.5185 49.3498 21.7051 47.8418 21.606C46.9535 21.5403 46.0798 21.3437 45.2489 21.0226C45.1812 20.8497 45.0602 20.7027 44.9034 20.6031C44.7466 20.5035 44.5622 20.4563 44.3768 20.4685L44.0268 20.2351C44.6743 19.4126 44.966 18.3656 44.8435 17.3243C44.7499 16.9499 44.6128 16.5877 44.4352 16.2451C45.8741 16.251 47.31 16.3317 48.7431 16.4814ZM48.0139 64.2826C43.9051 66.4399 39.2167 67.2346 34.6264 66.5518C30.1039 65.9917 25.8382 64.1418 22.3385 61.2231C21.2199 60.3371 20.311 59.2149 19.6767 57.9367C19.0424 56.6585 18.6984 55.2559 18.6693 53.8293C18.7246 52.4678 18.9499 51.1186 19.3402 49.8131C19.731 48.4442 20.2259 47.1142 20.8248 45.8231C21.7445 43.6453 22.7925 41.5297 23.9689 39.4764C25.1665 37.4692 26.4681 35.526 27.8685 33.6547C27.8921 33.5392 27.8921 33.4202 27.8685 33.3047C29.9724 32.9139 31.9102 31.8997 33.4306 30.3939C35.1135 28.5856 36.0673 26.2231 36.1081 23.7556C37.2 23.6873 38.2824 23.5115 39.3398 23.2306C40.1564 22.9817 40.9332 22.6414 41.6702 22.2097C41.2429 22.7431 40.8897 23.3317 40.6202 23.9597C40.1039 25.0972 39.891 26.3514 40.0077 27.5997C40.0466 27.9419 40.1535 28.2618 40.3285 28.5593L40.066 28.7343C39.576 29.201 39.2056 29.7785 38.9898 30.4231C38.6342 31.3694 38.5895 32.4045 38.8622 33.3779C39.135 34.3514 39.7109 35.2126 40.5064 35.8364C42.4336 37.4126 44.7614 38.4215 47.2293 38.7501C47.6182 38.7793 48.0071 38.7793 48.396 38.7501C49.7348 40.4651 51.161 42.0956 52.2956 43.901C53.0248 45.0735 53.576 46.351 53.926 47.6868C54.1691 48.6415 54.3343 49.6118 54.4218 50.5976C54.4938 51.5096 54.4938 52.4215 54.4218 53.3335C54.373 55.5384 53.7717 57.6958 52.6731 59.6082C51.5745 61.5206 50.0136 63.1268 48.1335 64.2797L48.0139 64.2826ZM30.2573 9.08472L31.596 11.6776C31.6506 11.7763 31.7243 11.863 31.8129 11.9327C31.9015 12.0024 32.0031 12.0538 32.1118 12.0837C32.2205 12.1135 32.3341 12.1214 32.4458 12.1068C32.5576 12.0921 32.6653 12.0553 32.7627 11.9985C32.9612 11.8876 33.1087 11.7038 33.174 11.486C33.2393 11.2683 33.2173 11.0336 33.1127 10.8318L32.121 8.44597L31.8002 6.75431C31.8002 5.56139 31.8002 5.01014 32.3543 4.86431C33.0748 4.80014 33.801 4.89931 34.4777 5.15597C35.5714 5.48847 36.7148 5.62556 37.8552 5.56431C38.3918 5.45347 38.8974 5.25903 39.3718 4.98097C39.9523 4.63097 40.5327 4.13514 41.1452 3.72681C41.7577 3.31847 41.5535 3.28931 41.7868 3.34764C42.0202 3.40597 42.166 3.75597 42.3702 3.98931C42.6463 4.40736 42.9467 4.80597 43.2714 5.18514C43.5961 5.54486 43.9743 5.83653 44.406 6.06014C45.9227 6.44806 47.5327 6.22639 48.8889 5.44764C49.3848 5.24347 49.8514 5.01014 50.3181 4.86431H50.6389C50.7556 5.35042 50.813 5.84528 50.811 6.34889L50.4027 8.32931L49.2652 10.7735C49.1284 10.9881 49.0794 11.247 49.1283 11.4968C49.1771 11.7465 49.3201 11.9679 49.5277 12.1151C49.6384 12.1869 49.7632 12.2342 49.8937 12.2539C50.0242 12.2736 50.1574 12.2652 50.2844 12.2294C50.4114 12.1935 50.5292 12.1309 50.6301 12.0458C50.731 11.9607 50.8125 11.8551 50.8693 11.736L52.4123 9.05556L53.1706 6.55306C53.3567 5.91284 53.3929 5.2384 53.2766 4.58192C53.1603 3.92544 52.8945 3.30452 52.4998 2.76722C51.9199 2.36826 51.2432 2.13328 50.5409 2.08707C49.8386 2.04087 49.1368 2.18516 48.5098 2.50472L46.6489 3.00056C46.3281 3.00056 46.0656 3.23389 45.8323 3.00056C45.5989 2.76722 45.3656 2.38806 45.1031 2.00889C44.7857 1.50592 44.3932 1.05445 43.9393 0.670139C43.5304 0.379953 43.0639 0.181019 42.5714 0.0868061C41.8905 -0.0726438 41.1765 -0.0113556 40.5327 0.261806C39.7646 0.613751 39.0568 1.06097 38.4093 1.60347C38.071 1.93208 37.6821 2.18486 37.2427 2.36181C36.2662 2.4281 35.2853 2.34947 34.3318 2.12847C33.3616 1.95161 32.3631 2.01165 31.421 2.30347C30.1668 2.79931 29.0352 3.93097 29.4989 6.90306L30.2573 9.08472Z" fill="white"/>
<mask id="path-2-outside-1_12_74" maskUnits="userSpaceOnUse" x="26.0889" y="37.9372" width="16.7109" height="20.016" fill="black">
<rect fill="white" x="26.0889" y="37.9372" width="16.7109" height="20.016"/>
<path d="M30.0266 49.2606C29.6964 49.3143 29.4629 49.2415 29.3261 49.0422C29.2021 48.8407 29.1544 48.5878 29.183 48.2833C29.3948 48.2227 29.7368 48.1214 30.2091 47.9793C30.692 47.8224 31.2257 47.6573 31.8102 47.4839C31.8748 46.5999 31.9882 45.6949 32.1503 44.7689C32.3104 43.8303 32.5293 42.9733 32.8072 42.198C33.0958 41.4079 33.4505 40.7439 33.8713 40.206C34.2922 39.6682 34.7884 39.3527 35.3599 39.2596C35.7028 39.2038 36.0053 39.2197 36.2673 39.3074C36.542 39.3931 36.7794 39.5304 36.9797 39.7194C37.18 39.9085 37.3409 40.1365 37.4626 40.4035C37.5843 40.6705 37.671 40.9627 37.7227 41.2802C37.4687 41.3216 37.2552 41.2912 37.0821 41.189C36.9069 41.0741 36.7435 40.9508 36.5916 40.8191C36.4398 40.6873 36.2837 40.5694 36.1233 40.4651C35.9609 40.3481 35.7717 40.3072 35.5558 40.3424C35.1494 40.4086 34.7941 40.6685 34.4899 41.1222C34.1963 41.5611 33.9394 42.1049 33.719 42.7535C33.4987 43.4021 33.3226 44.1218 33.1906 44.9125C33.0692 45.6884 32.9765 46.4401 32.9125 47.1675C33.173 47.086 33.4451 46.9961 33.729 46.8977C34.0107 46.7866 34.2808 46.684 34.5393 46.5897C34.7977 46.4955 35.0254 46.4128 35.2224 46.3416C35.4194 46.2704 35.5687 46.2266 35.6703 46.21C35.7846 46.1914 35.8712 46.2425 35.93 46.3633C35.9887 46.4841 36.0168 46.6164 36.0142 46.7603C36.0242 46.902 36.0068 47.0352 35.9619 47.1599C35.917 47.2845 35.8491 47.3477 35.7581 47.3495L32.8412 48.4111C32.804 49.3037 32.798 50.0674 32.8231 50.7021L36.8627 48.9688C36.9197 48.9986 36.9841 49.0337 37.0558 49.0742C37.1276 49.1147 37.1771 49.1783 37.2043 49.2651C37.2294 49.3393 37.2131 49.4397 37.1555 49.5664C37.1106 49.6911 36.9937 49.8535 36.8047 50.0538L33.0092 51.8451C33.0837 52.3024 33.1657 52.7257 33.2552 53.1153C33.3447 53.5049 33.4777 53.8418 33.6544 54.1259C33.8417 54.3952 34.0821 54.5908 34.3757 54.7124C34.6693 54.8341 35.0574 54.8557 35.54 54.7771C36.1115 54.684 36.6663 54.5285 37.2045 54.3105C37.7426 54.0925 38.227 53.8246 38.6576 53.5067C39.1009 53.1869 39.4714 52.8202 39.7691 52.4066C40.0648 51.9804 40.2516 51.5263 40.3295 51.0443C40.3995 50.9938 40.4906 50.9528 40.6029 50.9215C40.7278 50.8882 40.8505 50.8812 40.971 50.9007C41.0895 50.9075 41.193 50.9428 41.2816 51.0066C41.3829 51.0683 41.4492 51.1553 41.4806 51.2675C41.4661 51.7392 41.3322 52.1978 41.0788 52.6432C40.836 53.0738 40.5235 53.4767 40.1414 53.8518C39.7719 54.2249 39.3507 54.5607 38.8778 54.8593C38.4177 55.1559 37.9556 55.4006 37.4916 55.5935C37.0276 55.7864 36.585 55.9106 36.1638 55.9662C35.7574 56.0323 35.4169 56.0226 35.1422 55.937C34.685 56.0114 34.2663 55.9623 33.8862 55.7895C33.5167 55.6019 33.1866 55.3363 32.8959 54.9925C32.6053 54.6487 32.3646 54.2512 32.1737 53.7999C31.9935 53.3338 31.8652 52.8658 31.7887 52.3959L30.1707 53.1482C30.0777 53.1373 29.9615 53.1041 29.8221 53.0486C29.6826 52.993 29.5592 52.9154 29.4517 52.8155C29.3568 52.7136 29.2991 52.5992 29.2784 52.4722C29.2704 52.3431 29.345 52.2006 29.5021 52.0446C29.9044 51.9531 30.2962 51.8371 30.6775 51.6968C31.0567 51.5438 31.4286 51.3855 31.7931 51.2218C31.7626 50.8748 31.7471 50.4992 31.7465 50.0952C31.7438 49.6784 31.7444 49.2416 31.7482 48.7847C31.3521 48.9144 30.9985 49.0241 30.6871 49.1139C30.3865 49.1889 30.1663 49.2378 30.0266 49.2606Z"/>
</mask>
<path d="M30.0266 49.2606C29.6964 49.3143 29.4629 49.2415 29.3261 49.0422C29.2021 48.8407 29.1544 48.5878 29.183 48.2833C29.3948 48.2227 29.7368 48.1214 30.2091 47.9793C30.692 47.8224 31.2257 47.6573 31.8102 47.4839C31.8748 46.5999 31.9882 45.6949 32.1503 44.7689C32.3104 43.8303 32.5293 42.9733 32.8072 42.198C33.0958 41.4079 33.4505 40.7439 33.8713 40.206C34.2922 39.6682 34.7884 39.3527 35.3599 39.2596C35.7028 39.2038 36.0053 39.2197 36.2673 39.3074C36.542 39.3931 36.7794 39.5304 36.9797 39.7194C37.18 39.9085 37.3409 40.1365 37.4626 40.4035C37.5843 40.6705 37.671 40.9627 37.7227 41.2802C37.4687 41.3216 37.2552 41.2912 37.0821 41.189C36.9069 41.0741 36.7435 40.9508 36.5916 40.8191C36.4398 40.6873 36.2837 40.5694 36.1233 40.4651C35.9609 40.3481 35.7717 40.3072 35.5558 40.3424C35.1494 40.4086 34.7941 40.6685 34.4899 41.1222C34.1963 41.5611 33.9394 42.1049 33.719 42.7535C33.4987 43.4021 33.3226 44.1218 33.1906 44.9125C33.0692 45.6884 32.9765 46.4401 32.9125 47.1675C33.173 47.086 33.4451 46.9961 33.729 46.8977C34.0107 46.7866 34.2808 46.684 34.5393 46.5897C34.7977 46.4955 35.0254 46.4128 35.2224 46.3416C35.4194 46.2704 35.5687 46.2266 35.6703 46.21C35.7846 46.1914 35.8712 46.2425 35.93 46.3633C35.9887 46.4841 36.0168 46.6164 36.0142 46.7603C36.0242 46.902 36.0068 47.0352 35.9619 47.1599C35.917 47.2845 35.8491 47.3477 35.7581 47.3495L32.8412 48.4111C32.804 49.3037 32.798 50.0674 32.8231 50.7021L36.8627 48.9688C36.9197 48.9986 36.9841 49.0337 37.0558 49.0742C37.1276 49.1147 37.1771 49.1783 37.2043 49.2651C37.2294 49.3393 37.2131 49.4397 37.1555 49.5664C37.1106 49.6911 36.9937 49.8535 36.8047 50.0538L33.0092 51.8451C33.0837 52.3024 33.1657 52.7257 33.2552 53.1153C33.3447 53.5049 33.4777 53.8418 33.6544 54.1259C33.8417 54.3952 34.0821 54.5908 34.3757 54.7124C34.6693 54.8341 35.0574 54.8557 35.54 54.7771C36.1115 54.684 36.6663 54.5285 37.2045 54.3105C37.7426 54.0925 38.227 53.8246 38.6576 53.5067C39.1009 53.1869 39.4714 52.8202 39.7691 52.4066C40.0648 51.9804 40.2516 51.5263 40.3295 51.0443C40.3995 50.9938 40.4906 50.9528 40.6029 50.9215C40.7278 50.8882 40.8505 50.8812 40.971 50.9007C41.0895 50.9075 41.193 50.9428 41.2816 51.0066C41.3829 51.0683 41.4492 51.1553 41.4806 51.2675C41.4661 51.7392 41.3322 52.1978 41.0788 52.6432C40.836 53.0738 40.5235 53.4767 40.1414 53.8518C39.7719 54.2249 39.3507 54.5607 38.8778 54.8593C38.4177 55.1559 37.9556 55.4006 37.4916 55.5935C37.0276 55.7864 36.585 55.9106 36.1638 55.9662C35.7574 56.0323 35.4169 56.0226 35.1422 55.937C34.685 56.0114 34.2663 55.9623 33.8862 55.7895C33.5167 55.6019 33.1866 55.3363 32.8959 54.9925C32.6053 54.6487 32.3646 54.2512 32.1737 53.7999C31.9935 53.3338 31.8652 52.8658 31.7887 52.3959L30.1707 53.1482C30.0777 53.1373 29.9615 53.1041 29.8221 53.0486C29.6826 52.993 29.5592 52.9154 29.4517 52.8155C29.3568 52.7136 29.2991 52.5992 29.2784 52.4722C29.2704 52.3431 29.345 52.2006 29.5021 52.0446C29.9044 51.9531 30.2962 51.8371 30.6775 51.6968C31.0567 51.5438 31.4286 51.3855 31.7931 51.2218C31.7626 50.8748 31.7471 50.4992 31.7465 50.0952C31.7438 49.6784 31.7444 49.2416 31.7482 48.7847C31.3521 48.9144 30.9985 49.0241 30.6871 49.1139C30.3865 49.1889 30.1663 49.2378 30.0266 49.2606Z" fill="white"/>
<path d="M29.3261 49.0422L29.0707 49.1995L29.0746 49.2058L29.0787 49.2119L29.3261 49.0422ZM29.183 48.2833L29.1005 47.9948L28.9035 48.0512L28.8843 48.2552L29.183 48.2833ZM30.2091 47.9793L30.2955 48.2666L30.3017 48.2646L30.2091 47.9793ZM31.8102 47.4839L31.8955 47.7715L32.0943 47.7126L32.1094 47.5058L31.8102 47.4839ZM32.1503 44.7689L32.4458 44.8207L32.4461 44.8194L32.1503 44.7689ZM32.8072 42.198L32.5254 42.0951L32.5248 42.0967L32.8072 42.198ZM36.2673 39.3074L36.172 39.592L36.178 39.5938L36.2673 39.3074ZM36.9797 39.7194L37.1856 39.5013L36.9797 39.7194ZM37.7227 41.2802L37.7709 41.5763L38.067 41.5281L38.0188 41.232L37.7227 41.2802ZM37.0821 41.189L36.9176 41.4398L36.9235 41.4437L36.9296 41.4473L37.0821 41.189ZM36.1233 40.4651L35.948 40.7086L35.9538 40.7127L35.9598 40.7166L36.1233 40.4651ZM34.4899 41.1222L34.2407 40.9551L34.2405 40.9554L34.4899 41.1222ZM33.1906 44.9125L32.8947 44.8631L32.8942 44.8661L33.1906 44.9125ZM32.9125 47.1675L32.6136 47.1412L32.5743 47.5877L33.0021 47.4538L32.9125 47.1675ZM33.729 46.8977L33.8273 47.1814L33.839 47.1768L33.729 46.8977ZM36.0142 46.7603L35.7142 46.7547L35.714 46.7681L35.7149 46.7815L36.0142 46.7603ZM35.7581 47.3495L35.7522 47.0496L35.7024 47.0505L35.6555 47.0676L35.7581 47.3495ZM32.8412 48.4111L32.7386 48.1292L32.5498 48.1979L32.5414 48.3987L32.8412 48.4111ZM32.8231 50.7021L32.5233 50.714L32.5406 51.1498L32.9414 50.9778L32.8231 50.7021ZM36.8627 48.9688L37.0018 48.703L36.8754 48.6368L36.7444 48.6931L36.8627 48.9688ZM37.2043 49.2651L36.9179 49.3548L36.9201 49.3614L37.2043 49.2651ZM37.1555 49.5664L36.8824 49.4423L36.8774 49.4533L36.8733 49.4648L37.1555 49.5664ZM36.8047 50.0538L36.9327 50.3251L36.984 50.3009L37.0228 50.2597L36.8047 50.0538ZM33.0092 51.8451L32.8812 51.5738L32.6768 51.6703L32.7131 51.8934L33.0092 51.8451ZM33.2552 53.1153L32.9628 53.1825L33.2552 53.1153ZM33.6544 54.1259L33.3996 54.2843L33.4037 54.2908L33.4081 54.2971L33.6544 54.1259ZM34.3757 54.7124L34.2608 54.9896L34.3757 54.7124ZM38.6576 53.5067L38.482 53.2635L38.4795 53.2654L38.6576 53.5067ZM39.7691 52.4066L40.0126 52.5819L40.0156 52.5776L39.7691 52.4066ZM40.3295 51.0443L40.154 50.801L40.0532 50.8737L40.0334 50.9964L40.3295 51.0443ZM40.6029 50.9215L40.5254 50.6317L40.5223 50.6326L40.6029 50.9215ZM40.971 50.9007L40.9232 51.1968L40.9384 51.1993L40.9539 51.2002L40.971 50.9007ZM41.2816 51.0066L41.1063 51.25L41.1157 51.2568L41.1255 51.2628L41.2816 51.0066ZM41.4806 51.2675L41.7804 51.2767L41.7818 51.231L41.7695 51.1869L41.4806 51.2675ZM41.0788 52.6432L40.818 52.4948L40.8174 52.4958L41.0788 52.6432ZM40.1414 53.8518L39.9312 53.6377L39.9282 53.6407L40.1414 53.8518ZM38.8778 54.8593L38.7177 54.6057L38.7153 54.6072L38.8778 54.8593ZM36.1638 55.9662L36.1246 55.6686L36.1156 55.6701L36.1638 55.9662ZM35.1422 55.937L35.2315 55.6506L35.1639 55.6295L35.094 55.6409L35.1422 55.937ZM33.8862 55.7895L33.7503 56.0572L33.762 56.0626L33.8862 55.7895ZM32.1737 53.7999L31.8938 53.9081L31.8974 53.9167L32.1737 53.7999ZM31.7887 52.3959L32.0848 52.3477L32.0212 51.9569L31.6622 52.1239L31.7887 52.3959ZM30.1707 53.1482L30.1357 53.4462L30.2202 53.4561L30.2972 53.4203L30.1707 53.1482ZM29.4517 52.8155L29.232 53.0199L29.2395 53.0279L29.2475 53.0354L29.4517 52.8155ZM29.2784 52.4722L28.979 52.4907L28.9799 52.5056L28.9823 52.5204L29.2784 52.4722ZM29.5021 52.0446L29.4355 51.7521L29.3518 51.7712L29.2908 51.8317L29.5021 52.0446ZM30.6775 51.6968L30.7812 51.9785L30.7898 51.975L30.6775 51.6968ZM31.7931 51.2218L31.9159 51.4955L32.1105 51.4081L32.0919 51.1956L31.7931 51.2218ZM31.7465 50.0952L32.0465 50.0947L32.0465 50.0933L31.7465 50.0952ZM31.7482 48.7847L32.0482 48.7872L32.0517 48.3696L31.6549 48.4996L31.7482 48.7847ZM30.6871 49.1139L30.7598 49.4052L30.7703 49.4021L30.6871 49.1139ZM30.0266 49.2606L29.9784 48.9645C29.7115 49.0079 29.6195 48.9395 29.5735 48.8725L29.3261 49.0422L29.0787 49.2119C29.3063 49.5436 29.6812 49.6208 30.0748 49.5567L30.0266 49.2606ZM29.3261 49.0422L29.5816 48.8849C29.5005 48.7533 29.4573 48.5701 29.4817 48.3113L29.183 48.2833L28.8843 48.2552C28.8514 48.6055 28.9036 48.9282 29.0707 49.1995L29.3261 49.0422ZM29.183 48.2833L29.2655 48.5717C29.4794 48.5105 29.8231 48.4087 30.2955 48.2666L30.2091 47.9793L30.1226 47.692C29.6505 47.8341 29.3101 47.9349 29.1005 47.9948L29.183 48.2833ZM30.2091 47.9793L30.3017 48.2646C30.7818 48.1087 31.313 47.9443 31.8955 47.7715L31.8102 47.4839L31.7249 47.1963C31.1384 47.3703 30.6022 47.5362 30.1164 47.694L30.2091 47.9793ZM31.8102 47.4839L32.1094 47.5058C32.1733 46.6324 32.2853 45.7374 32.4458 44.8207L32.1503 44.7689L31.8548 44.7172C31.6911 45.6525 31.5764 46.5674 31.511 47.462L31.8102 47.4839ZM32.1503 44.7689L32.4461 44.8194C32.6036 43.8954 32.8185 43.0557 33.0897 42.2992L32.8072 42.198L32.5248 42.0967C32.2402 42.8909 32.0171 43.7652 31.8546 44.7185L32.1503 44.7689ZM32.8072 42.198L33.089 42.3009C33.3692 41.5337 33.71 40.899 34.1076 40.3909L33.8713 40.206L33.6351 40.0211C33.191 40.5887 32.8224 41.282 32.5255 42.0951L32.8072 42.198ZM33.8713 40.206L34.1076 40.3909C34.4909 39.9011 34.9241 39.6345 35.4081 39.5557L35.3599 39.2596L35.3117 38.9635C34.6527 39.0708 34.0936 39.4352 33.6351 40.0211L33.8713 40.206ZM35.3599 39.2596L35.4081 39.5557C35.7151 39.5057 35.9666 39.5231 36.172 39.5919L36.2673 39.3074L36.3625 39.023C36.044 38.9163 35.6906 38.9018 35.3117 38.9635L35.3599 39.2596ZM36.2673 39.3074L36.178 39.5938C36.4111 39.6665 36.6082 39.7813 36.7738 39.9376L36.9797 39.7194L37.1856 39.5013C36.9507 39.2795 36.6728 39.1196 36.3566 39.021L36.2673 39.3074ZM36.9797 39.7194L36.7738 39.9376C36.944 40.0983 37.083 40.2938 37.1897 40.5279L37.4626 40.4035L37.7356 40.279C37.5989 39.9791 37.4159 39.7186 37.1856 39.5013L36.9797 39.7194ZM37.4626 40.4035L37.1897 40.5279C37.2993 40.7684 37.3788 41.0347 37.4266 41.3284L37.7227 41.2802L38.0188 41.232C37.9633 40.8907 37.8694 40.5725 37.7356 40.279L37.4626 40.4035ZM37.7227 41.2802L37.6745 40.9841C37.47 41.0174 37.332 40.9881 37.2346 40.9307L37.0821 41.189L36.9296 41.4473C37.1784 41.5942 37.4675 41.6257 37.7709 41.5763L37.7227 41.2802ZM37.0821 41.189L37.2466 40.9381C37.0822 40.8303 36.9295 40.715 36.7882 40.5925L36.5916 40.8191L36.395 41.0457C36.5574 41.1865 36.7317 41.3179 36.9176 41.4398L37.0821 41.189ZM36.5916 40.8191L36.7882 40.5925C36.6265 40.4521 36.4594 40.3257 36.2868 40.2136L36.1233 40.4651L35.9598 40.7166C36.108 40.813 36.2531 40.9226 36.395 41.0457L36.5916 40.8191ZM36.1233 40.4651L36.2986 40.2216C36.0653 40.0537 35.794 39.9997 35.5076 40.0463L35.5558 40.3424L35.604 40.6385C35.7494 40.6148 35.8565 40.6426 35.948 40.7086L36.1233 40.4651ZM35.5558 40.3424L35.5076 40.0463C34.9949 40.1298 34.5753 40.456 34.2407 40.9551L34.4899 41.1222L34.739 41.2893C35.0128 40.881 35.3039 40.6874 35.604 40.6385L35.5558 40.3424ZM34.4899 41.1222L34.2405 40.9554C33.9288 41.4215 33.6614 41.9905 33.435 42.657L33.719 42.7535L34.0031 42.85C34.2173 42.2193 34.4638 41.7007 34.7392 41.289L34.4899 41.1222ZM33.719 42.7535L33.435 42.657C33.2087 43.3233 33.0289 44.059 32.8947 44.8631L33.1906 44.9125L33.4865 44.9618C33.6163 44.1845 33.7888 43.4809 34.0031 42.85L33.719 42.7535ZM33.1906 44.9125L32.8942 44.8661C32.7719 45.6482 32.6783 46.4066 32.6136 47.1412L32.9125 47.1675L33.2113 47.1939C33.2747 46.4736 33.3666 45.7286 33.487 44.9588L33.1906 44.9125ZM32.9125 47.1675L33.0021 47.4538C33.2657 47.3713 33.5408 47.2804 33.8272 47.1811L33.729 46.8977L33.6307 46.6142C33.3495 46.7117 33.0802 46.8007 32.8228 46.8812L32.9125 47.1675ZM33.729 46.8977L33.839 47.1768C34.1186 47.0666 34.3863 46.9649 34.642 46.8716L34.5393 46.5897L34.4365 46.3079C34.1754 46.4031 33.9029 46.5067 33.6189 46.6186L33.729 46.8977ZM34.5393 46.5897L34.642 46.8716C34.9003 46.7774 35.1277 46.6948 35.3244 46.6238L35.2224 46.3416L35.1205 46.0595C34.9231 46.1308 34.6951 46.2136 34.4365 46.3079L34.5393 46.5897ZM35.2224 46.3416L35.3244 46.6238C35.5179 46.5538 35.6457 46.518 35.7185 46.5061L35.6703 46.21L35.6221 45.9139C35.4918 45.9351 35.3209 45.987 35.1205 46.0595L35.2224 46.3416ZM35.6703 46.21L35.7185 46.5061C35.7196 46.5059 35.7138 46.507 35.703 46.5053C35.6916 46.5034 35.6794 46.4992 35.6684 46.4927C35.6466 46.4798 35.6481 46.4697 35.6602 46.4946L35.93 46.3633L36.1997 46.232C36.1531 46.1361 36.0819 46.0401 35.9735 45.976C35.8607 45.9095 35.7374 45.8951 35.6221 45.9139L35.6703 46.21ZM35.93 46.3633L35.6602 46.4946C35.6968 46.5698 35.716 46.6548 35.7142 46.7547L36.0142 46.7603L36.3141 46.7658C36.3176 46.578 36.2807 46.3984 36.1997 46.232L35.93 46.3633ZM36.0142 46.7603L35.7149 46.7815C35.7222 46.8846 35.7094 46.9757 35.6796 47.0582L35.9619 47.1599L36.2441 47.2615C36.3042 47.0948 36.3262 46.9194 36.3134 46.739L36.0142 46.7603ZM35.9619 47.1599L35.6796 47.0582C35.6669 47.0936 35.6602 47.093 35.6729 47.0811C35.6803 47.0743 35.6922 47.0656 35.7084 47.059C35.7248 47.0523 35.7403 47.0498 35.7522 47.0496L35.7581 47.3495L35.764 47.6494C36.0351 47.6442 36.1799 47.4399 36.2441 47.2615L35.9619 47.1599ZM35.7581 47.3495L35.6555 47.0676L32.7386 48.1292L32.8412 48.4111L32.9438 48.6931L35.8607 47.6314L35.7581 47.3495ZM32.8412 48.4111L32.5414 48.3987C32.504 49.2964 32.4978 50.0686 32.5233 50.714L32.8231 50.7021L33.1229 50.6902C33.0982 50.0661 33.1039 49.3111 33.1409 48.4236L32.8412 48.4111ZM32.8231 50.7021L32.9414 50.9778L36.981 49.2445L36.8627 48.9688L36.7444 48.6931L32.7048 50.4264L32.8231 50.7021ZM36.8627 48.9688L36.7236 49.2346C36.7772 49.2626 36.8387 49.2962 36.9085 49.3355L37.0558 49.0742L37.2032 48.8129C37.1294 48.7713 37.0622 48.7346 37.0018 48.703L36.8627 48.9688ZM37.0558 49.0742L36.9085 49.3355C36.9099 49.3363 36.9102 49.3367 36.9101 49.3365C36.9098 49.3363 36.9098 49.3362 36.9099 49.3364C36.91 49.3365 36.9137 49.3412 36.918 49.3548L37.2043 49.2651L37.4906 49.1755C37.4432 49.0241 37.3486 48.8949 37.2032 48.8129L37.0558 49.0742ZM37.2043 49.2651L36.9201 49.3614C36.913 49.3403 36.9173 49.3322 36.9148 49.3482C36.9121 49.3644 36.9039 49.395 36.8824 49.4423L37.1555 49.5664L37.4287 49.6905C37.4954 49.5436 37.551 49.3538 37.4884 49.1689L37.2043 49.2651ZM37.1555 49.5664L36.8733 49.4648C36.8507 49.5275 36.7712 49.6522 36.5865 49.8479L36.8047 50.0538L37.0228 50.2597C37.2162 50.0549 37.3706 49.8546 37.4378 49.6681L37.1555 49.5664ZM36.8047 50.0538L36.6766 49.7825L32.8812 51.5738L33.0092 51.8451L33.1373 52.1164L36.9327 50.3251L36.8047 50.0538ZM33.0092 51.8451L32.7131 51.8934C32.7885 52.356 32.8716 52.7858 32.9628 53.1825L33.2552 53.1153L33.5475 53.0481C33.4597 52.6657 33.3789 52.2487 33.3053 51.7969L33.0092 51.8451ZM33.2552 53.1153L32.9628 53.1825C33.0583 53.5982 33.2025 53.9672 33.3996 54.2843L33.6544 54.1259L33.9092 53.9675C33.753 53.7163 33.631 53.4116 33.5475 53.0481L33.2552 53.1153ZM33.6544 54.1259L33.4081 54.2971C33.627 54.612 33.9124 54.8452 34.2608 54.9896L34.3757 54.7124L34.4905 54.4353C34.2518 54.3363 34.0563 54.1784 33.9007 53.9546L33.6544 54.1259ZM34.3757 54.7124L34.2608 54.9896C34.6266 55.1412 35.0779 55.1563 35.5882 55.0732L35.54 54.7771L35.4918 54.481C35.0369 54.555 34.7119 54.527 34.4905 54.4353L34.3757 54.7124ZM35.54 54.7771L35.5882 55.0732C36.1819 54.9765 36.7583 54.8149 37.3171 54.5885L37.2045 54.3105L37.0918 54.0324C36.5744 54.2421 36.0411 54.3915 35.4918 54.481L35.54 54.7771ZM37.2045 54.3105L37.3171 54.5885C37.8766 54.3619 38.3833 54.0821 38.8358 53.7481L38.6576 53.5067L38.4795 53.2654C38.0707 53.5671 37.6086 53.8231 37.0918 54.0324L37.2045 54.3105ZM38.6576 53.5067L38.8331 53.75C39.3007 53.4126 39.6947 53.0234 40.0126 52.5819L39.7691 52.4066L39.5257 52.2314C39.2481 52.6169 38.9011 52.9611 38.4821 53.2635L38.6576 53.5067ZM39.7691 52.4066L40.0156 52.5776C40.3352 52.1169 40.5401 51.6211 40.6257 51.0922L40.3295 51.0443L40.0334 50.9964C39.963 51.4314 39.7944 51.8439 39.5226 52.2357L39.7691 52.4066ZM40.3295 51.0443L40.5051 51.2875C40.5383 51.2636 40.5942 51.2354 40.6835 51.2105L40.6029 50.9215L40.5223 50.6326C40.3871 50.6703 40.2608 50.7239 40.154 50.801L40.3295 51.0443ZM40.6029 50.9215L40.6803 51.2114C40.7669 51.1882 40.8469 51.1845 40.9232 51.1968L40.971 50.9007L41.0189 50.6045C40.8542 50.5779 40.6888 50.5881 40.5254 50.6317L40.6029 50.9215ZM40.971 50.9007L40.9539 51.2002C41.0205 51.204 41.068 51.2225 41.1063 51.25L41.2816 51.0066L41.4569 50.7631C41.318 50.6631 41.1585 50.6109 40.9882 50.6012L40.971 50.9007ZM41.2816 51.0066L41.1255 51.2628C41.1632 51.2857 41.1811 51.3106 41.1916 51.3481L41.4806 51.2675L41.7695 51.1869C41.7174 50.9999 41.6027 50.8509 41.4377 50.7504L41.2816 51.0066ZM41.4806 51.2675L41.1807 51.2583C41.1679 51.677 41.0494 52.0882 40.818 52.4948L41.0788 52.6432L41.3395 52.7915C41.615 52.3073 41.7643 51.8014 41.7804 51.2767L41.4806 51.2675ZM41.0788 52.6432L40.8174 52.4958C40.5896 52.9 40.2949 53.2807 39.9312 53.6377L40.1414 53.8518L40.3515 54.0659C40.7521 53.6727 41.0824 53.2476 41.3401 52.7905L41.0788 52.6432ZM40.1414 53.8518L39.9282 53.6407C39.5757 53.9966 39.1726 54.3184 38.7177 54.6057L38.8778 54.8593L39.038 55.113C39.5289 54.803 39.968 54.4531 40.3545 54.0629L40.1414 53.8518ZM38.8778 54.8593L38.7153 54.6072C38.2689 54.8949 37.8226 55.131 37.3764 55.3165L37.4916 55.5935L37.6068 55.8705C38.0887 55.6702 38.5665 55.4169 39.0404 55.1115L38.8778 54.8593ZM37.4916 55.5935L37.3764 55.3165C36.9325 55.5011 36.5154 55.6172 36.1246 55.6687L36.1638 55.9662L36.2031 56.2636C36.6546 56.204 37.1228 56.0717 37.6068 55.8705L37.4916 55.5935ZM36.1638 55.9662L36.1156 55.6701C35.7367 55.7318 35.4467 55.7177 35.2315 55.6506L35.1422 55.937L35.0529 56.2234C35.387 56.3275 35.7781 56.3329 36.212 56.2623L36.1638 55.9662ZM35.1422 55.937L35.094 55.6409C34.6886 55.7069 34.3307 55.662 34.0103 55.5164L33.8862 55.7895L33.762 56.0626C34.2019 56.2625 34.6814 56.3159 35.1904 56.2331L35.1422 55.937ZM33.8862 55.7895L34.0219 55.522C33.6911 55.3541 33.3921 55.1147 33.125 54.7988L32.8959 54.9925L32.6668 55.1862C32.9811 55.5579 33.3422 55.8498 33.7504 56.057L33.8862 55.7895ZM32.8959 54.9925L33.125 54.7988C32.8556 54.4801 32.6301 54.1089 32.45 53.683L32.1737 53.7999L31.8974 53.9167C32.099 54.3934 32.355 54.8174 32.6668 55.1862L32.8959 54.9925ZM32.1737 53.7999L32.4535 53.6917C32.2805 53.244 32.1578 52.7961 32.0848 52.3477L31.7887 52.3959L31.4926 52.4441C31.5726 52.9355 31.7066 53.4236 31.8939 53.908L32.1737 53.7999ZM31.7887 52.3959L31.6622 52.1239L30.0442 52.8762L30.1707 53.1482L30.2972 53.4203L31.9152 52.6679L31.7887 52.3959ZM30.1707 53.1482L30.2057 52.8503C30.1495 52.8437 30.0608 52.8207 29.933 52.7699L29.822 53.0486L29.7111 53.3273C29.8621 53.3874 30.0058 53.4309 30.1357 53.4462L30.1707 53.1482ZM29.822 53.0486L29.933 52.7699C29.8272 52.7277 29.7355 52.6697 29.6558 52.5957L29.4517 52.8155L29.2475 53.0354C29.3828 53.161 29.538 53.2584 29.7111 53.3273L29.822 53.0486ZM29.4517 52.8155L29.6713 52.6112C29.6134 52.5489 29.5849 52.4877 29.5745 52.424L29.2784 52.4722L28.9823 52.5204C29.0133 52.7107 29.1003 52.8784 29.232 53.0199L29.4517 52.8155ZM29.2784 52.4722L29.5778 52.4537C29.5778 52.4537 29.5778 52.4531 29.5779 52.4517C29.5781 52.4503 29.5784 52.4479 29.5793 52.4443C29.5811 52.4371 29.5851 52.4249 29.5942 52.4076C29.613 52.3717 29.6492 52.3214 29.7135 52.2576L29.5021 52.0446L29.2908 51.8317C29.114 52.0072 28.9629 52.2304 28.979 52.4907L29.2784 52.4722ZM29.5021 52.0446L29.5687 52.3372C29.9834 52.2428 30.3875 52.1232 30.7811 51.9784L30.6775 51.6968L30.5739 51.4153C30.2049 51.5511 29.8255 51.6634 29.4355 51.7521L29.5021 52.0446ZM30.6775 51.6968L30.7898 51.975C31.1725 51.8206 31.5479 51.6608 31.9159 51.4955L31.7931 51.2218L31.6702 50.9482C31.3093 51.1102 30.941 51.267 30.5653 51.4186L30.6775 51.6968ZM31.7931 51.2218L32.0919 51.1956C32.0623 50.8584 32.0471 50.4915 32.0465 50.0947L31.7465 50.0952L31.4465 50.0956C31.4471 50.507 31.4629 50.8912 31.4942 51.248L31.7931 51.2218ZM31.7465 50.0952L32.0465 50.0933C32.0438 49.6781 32.0444 49.2428 32.0482 48.7872L31.7482 48.7847L31.4482 48.7822C31.4444 49.2404 31.4438 49.6787 31.4465 50.0971L31.7465 50.0952ZM31.7482 48.7847L31.6549 48.4996C31.2613 48.6284 30.9111 48.7371 30.604 48.8257L30.6871 49.1139L30.7703 49.4021C31.0858 49.3111 31.443 49.2003 31.8416 49.0698L31.7482 48.7847ZM30.6871 49.1139L30.6145 48.8228C30.3148 48.8976 30.1049 48.9439 29.9784 48.9645L30.0266 49.2606L30.0748 49.5567C30.2277 49.5318 30.4582 49.4802 30.7598 49.405L30.6871 49.1139Z" fill="white" mask="url(#path-2-outside-1_12_74)"/>
</svg>
