<svg width="70" height="70" viewBox="0 0 70 70" fill="none" xmlns="http://www.w3.org/2000/svg">
<path d="M31.1097 58.8729C30.2802 56.8878 28.9048 55.1786 27.143 53.9438C26.1368 53.2439 25.051 52.6663 23.9084 52.2229C25.2677 50.922 26.2159 49.2513 26.6358 47.4173C27.0557 45.5833 26.9288 43.6664 26.2709 41.9038C25.3591 39.2801 23.4605 37.1151 20.9783 35.8686C18.4961 34.622 15.6258 34.3921 12.9768 35.2275C11.2411 35.7656 9.68296 36.7623 8.4668 38.1125C7.25063 39.4626 6.42158 41.1161 6.06717 42.8983C5.62649 44.6165 5.64512 46.4204 6.12118 48.1291C6.59725 49.8378 7.51404 51.3914 8.77968 52.6342L8.98384 52.8092C8.2483 53.1155 7.53661 53.4762 6.85467 53.8883C5.99717 54.4406 5.20968 55.0822 4.49218 55.8133C3.76391 56.5646 3.10952 57.384 2.53801 58.2604C1.34249 60.1975 0.494599 62.3286 0.0325917 64.5575C-0.0314168 64.7972 -0.000409801 65.0523 0.119144 65.2697C0.238698 65.4871 0.437565 65.6499 0.674258 65.7242C0.910192 65.7972 1.16546 65.7738 1.38414 65.659C1.60282 65.5442 1.76707 65.3474 1.84092 65.1117C2.60956 63.229 3.65129 61.4699 4.93259 59.8908C5.45759 59.2492 6.04092 58.6367 6.65342 58.0242C7.26592 57.4117 7.81718 56.8867 8.48801 56.3354C9.40968 55.5499 10.3819 54.8304 11.4047 54.1771C11.6575 54.2743 11.92 54.3424 12.1922 54.3813C14.0319 54.7179 15.9174 54.7179 17.7572 54.3813C17.9035 54.3556 18.0413 54.2943 18.1583 54.2027C18.2753 54.1111 18.3679 53.9921 18.428 53.8563C18.3898 53.9798 18.3898 54.1119 18.428 54.2354C18.5191 54.4619 18.6953 54.6438 18.9188 54.7419C19.1424 54.8401 19.3955 54.8467 19.6238 54.7604C20.3339 54.5063 21.0177 54.184 21.6655 53.7979C22.8575 54.5563 23.9755 55.4118 25.0197 56.3646C25.638 56.9479 26.2204 57.5701 26.7668 58.2313C27.3209 58.8885 27.8168 59.5885 28.2543 60.3313C29.2897 62.1804 30.1297 64.1346 30.7626 66.1588C30.7833 66.3559 30.8663 66.5413 30.9995 66.6882C31.1327 66.835 31.3092 66.9356 31.5034 66.9754C31.6324 67.0014 31.7655 66.9998 31.8938 66.9707C32.0222 66.9416 32.1429 66.8857 32.2481 66.8066C32.3534 66.7276 32.4407 66.6272 32.5043 66.512C32.568 66.3968 32.6066 66.2695 32.6176 66.1383C32.6305 66.0069 32.6136 65.8743 32.568 65.7504C32.4072 63.4008 31.9162 61.0856 31.1097 58.8729ZM19.1572 53.0396C19.0303 53.0892 18.9168 53.1678 18.8256 53.2691C18.7345 53.3704 18.6682 53.4915 18.6322 53.6229V53.4771C18.6179 53.3694 18.5823 53.2656 18.5274 53.1718C18.4725 53.0781 18.3995 52.9962 18.3126 52.931C18.2257 52.8658 18.1266 52.8186 18.0212 52.7922C17.9158 52.7658 17.8062 52.7606 17.6988 52.7771C6.38801 53.9146 8.77968 44.4413 8.77968 43.6829C9.05469 42.4413 9.65219 41.2941 10.512 40.357C11.3717 39.4199 12.4633 38.7261 13.6768 38.3454C15.5932 37.6944 17.6864 37.8034 19.5249 38.6499C21.3634 39.4965 22.8071 41.016 23.5584 42.8954C23.9383 43.842 24.1256 44.8548 24.1094 45.8746C24.0932 46.8944 23.8737 47.9008 23.4639 48.8348C23.0541 49.7688 22.4621 50.6116 21.7226 51.3141C20.9831 52.0166 20.111 52.5645 19.1572 52.9258V53.0396ZM68.0755 21.7583L67.3463 21.2625C68.0923 19.5594 68.612 17.766 68.8922 15.9279C69.2245 13.4786 68.9025 10.985 67.9588 8.70042C67.2338 7.24108 66.17 5.97651 64.8563 5.01241C63.5426 4.04832 62.0172 3.41272 60.4076 3.15875C58.7912 2.87096 57.1288 2.98659 55.5678 3.49538C54.0068 4.00417 52.5956 4.89039 51.4593 6.07542C50.476 7.20667 49.7141 8.51268 49.2134 9.92542C48.5601 11.8213 48.0643 13.7754 47.7259 15.7529L45.8009 15.4029H45.5968C45.4388 15.3622 45.2724 15.3681 45.1176 15.4199C44.9629 15.4716 44.8264 15.567 44.7247 15.6946C43.5947 17.0519 42.6167 18.5287 41.808 20.0988C40.9738 21.6329 40.2447 23.2167 39.6205 24.85C38.6224 26.7463 37.85 28.753 37.3193 30.8292C37.1063 31.9288 37.2084 33.0721 37.6109 34.1192C38.0338 35.0963 38.6843 35.9567 39.5068 36.6275C40.6005 37.4938 41.808 38.2083 43.0943 38.7567C45.2837 39.7872 47.5373 40.6525 49.8551 41.3525C52.169 42.0447 54.5208 42.5794 56.9105 42.9567C58.1919 43.1958 59.4849 43.3028 60.7897 43.2775C61.8022 43.2481 62.7964 42.9994 63.7034 42.5483C64.9626 41.9132 65.9849 40.8909 66.6201 39.6317C67.3162 38.01 67.8606 36.3378 68.2534 34.615C69.248 31.8296 69.8372 28.9129 70.0005 25.9583C70.0066 25.16 69.8373 24.3702 69.5047 23.6444C69.1721 22.9187 68.6842 22.2749 68.0755 21.7583ZM51.2551 10.71C51.7568 9.61042 52.4684 8.61875 53.3551 7.79334C54.2384 7.03779 55.2876 6.50158 56.4174 6.22839C57.5471 5.9552 58.7255 5.95276 59.8563 6.22125C60.9997 6.38998 62.0888 6.81978 63.0392 7.47733C63.9896 8.13488 64.7758 9.0025 65.3368 10.0129C66.2351 11.7425 66.6376 13.6879 66.5034 15.6392C66.3974 17.2469 66.0837 18.8341 65.5701 20.3613C64.8076 20.0718 64.0284 19.8283 63.2368 19.6321L58.3368 18.4654C55.8022 17.8238 53.3551 17.0946 50.8759 16.4821L49.2426 16.1321C49.7754 14.2732 50.4462 12.4658 51.2551 10.71ZM67.0838 27.0667C66.6728 29.3237 66.0578 31.5387 65.2463 33.6846C64.9155 35.1892 64.4267 36.6547 63.788 38.0567C63.4526 38.7609 62.9156 39.3497 62.2451 39.7483C61.7045 39.9739 61.1406 40.0906 60.5534 40.0983C59.4702 40.1262 58.3869 40.048 57.3188 39.865C55.0668 39.5098 52.8376 39.0228 50.6426 38.4067C48.4324 37.8125 46.2612 37.0819 44.1413 36.2192C43.1035 35.8013 42.1233 35.2524 41.2247 34.5858C40.6929 34.1983 40.2626 33.688 39.9705 33.0983C39.6643 32.2311 39.6643 31.2852 39.9705 30.4179C40.4663 28.7729 41.0497 27.159 41.7205 25.5763C42.2688 23.9935 42.9105 22.4496 43.6455 20.9446C44.1841 19.7196 44.8258 18.5529 45.5705 17.4446C47.233 17.7654 48.8663 18.1738 50.4122 18.6113C52.8884 19.3113 55.3063 20.1279 57.8438 20.8571L62.5397 22.2571C63.403 22.5001 64.2479 22.8015 65.0743 23.1613C65.5448 23.3868 65.9823 23.6688 66.3868 24.0071C66.7393 24.4241 66.9865 24.9196 67.1078 25.452C67.2291 25.9844 67.2209 26.5381 67.0838 27.0667Z" fill="white"/>
<path d="M54.6063 26.1917C51.6897 25.2875 47.6092 27.7083 50.2051 30.625C53.6467 34.5596 60.9005 28.2625 54.6063 26.1917ZM33.9097 16.1904C31.2067 15.5885 28.386 15.8016 25.8042 16.8029C24.7118 17.2268 23.6579 17.744 22.6542 18.3487C21.677 18.981 20.7688 19.7142 19.9447 20.5362C17.9741 22.4597 16.5974 24.9086 15.978 27.5917C15.9734 27.7744 16.0281 27.9538 16.1339 28.1029C16.2398 28.2519 16.3911 28.3627 16.5652 28.4185C16.7393 28.4744 16.9268 28.4723 17.0996 28.4126C17.2725 28.3529 17.4213 28.2389 17.5238 28.0875C18.5073 25.975 20.013 24.148 21.8988 22.7792C22.6688 22.1472 23.4758 21.5639 24.3197 21.0292C25.1499 20.4769 26.0142 19.9811 26.9126 19.5417C28.9427 18.4522 31.2286 17.9293 33.5305 18.0279C33.7697 18.0603 34.0121 17.9988 34.2069 17.8563C34.4016 17.7137 34.5336 17.5013 34.5751 17.2636C34.6167 17.0258 34.5645 16.7812 34.4295 16.5811C34.2945 16.381 34.0873 16.241 33.8513 16.1904H33.9097ZM53.2967 43.6829C53.0764 43.6493 52.8518 43.7039 52.6716 43.835C52.4913 43.9661 52.3701 44.163 52.3342 44.3829C51.5792 46.7752 50.3268 48.9809 48.6592 50.855C48.0041 51.69 47.2927 52.4793 46.5301 53.2175C45.8013 53.969 45.0227 54.6706 44.1997 55.3175C42.3244 56.8701 40.0103 57.7972 37.5817 57.9687C37.4269 57.9641 37.2733 57.9969 37.1338 58.0644C36.9944 58.1318 36.8733 58.2319 36.7808 58.3562C36.6884 58.4804 36.6272 58.6252 36.6027 58.7781C36.5781 58.931 36.5908 59.0876 36.6397 59.2346C36.6999 59.409 36.8104 59.5616 36.9573 59.6732C37.1042 59.7849 37.2809 59.8504 37.4651 59.8617C40.4192 60.1086 43.372 59.3701 45.8622 57.7617C46.9238 57.12 47.896 56.3626 48.7788 55.4896C49.6558 54.5971 50.4326 53.6249 51.1092 52.5729C52.7125 50.1858 53.7133 47.4456 54.0259 44.5871C54.036 44.3733 53.9674 44.1632 53.833 43.9966C53.6986 43.8299 53.5078 43.7184 53.2967 43.6829Z" fill="white"/>
</svg>
