<svg width="40" height="25" viewBox="0 0 40 25" fill="none" xmlns="http://www.w3.org/2000/svg">
<path d="M15.42 19.34L18.42 6H21L18 19.34H15.42ZM29.28 6.26C28.72 6.06 27.84 5.9 26.8 5.9C24.16 5.9 22.3 7.3 22.28 9.32C22.26 10.8 24.1 11.62 25.1 12.12C26.14 12.62 26.48 12.94 26.48 13.4C26.48 14.1 25.64 14.4 24.84 14.4C23.64 14.4 22.94 14.2 22.38 14.04L22.04 13.9L21.68 16.02C22.26 16.28 23.36 16.5 24.5 16.5C27.28 16.5 29.08 15.12 29.1 13.02C29.12 11.26 27.08 10.66 25.84 10.06C25.04 9.68 24.64 9.4 24.64 8.94C24.64 8.4 25.18 7.84 26.3 7.84C27.18 7.84 27.84 8 28.32 8.2L28.56 8.3L28.92 6.4L29.28 6.26ZM35.34 6H33.34C32.72 6 32.26 6.18 32 6.78L27.42 16.48H30.12L31.02 14.34H34.34L34.52 15.34C34.52 15.34 34.54 15.44 34.54 15.54C34.54 15.74 34.42 15.84 34.18 15.84C34.18 15.84 34.16 15.84 34.14 15.84C34.02 15.84 33.72 15.8 33.4 15.68L33 16.32C33.54 16.54 34.3 16.7 34.92 16.7C36.42 16.7 37.1 15.96 37.1 14.82C37.1 14.54 37.08 14.26 37.04 13.98L35.34 6ZM31.64 12.66L33.02 8.98L33.8 12.66H31.64ZM11.16 6L8.46 15.12L7.3 7.02C7.16 6.44 6.72 6 6.16 6H2.12L2 6.2C4.54 6.96 6.42 8.76 7.12 11L9.62 19.34H12.4L16.6 6H11.16Z" fill="#1A1F71"/>
<path d="M7.12 11C6.42 8.76 4.54 6.96 2 6.2L2.12 6H6.16C6.72 6 7.16 6.44 7.3 7.02L8.46 15.12L7.12 11Z" fill="#F7B600"/>
</svg>
