<svg width="736" height="476" viewBox="0 0 736 476" fill="none" xmlns="http://www.w3.org/2000/svg">
<path d="M98.9991 406.746C88.5104 406.783 78.5218 406.85 68.5332 406.851C42.0269 406.853 21.066 382.237 25.531 356.095C30.6321 326.229 35.9786 296.405 41.2319 266.565C41.253 266.445 41.4686 266.36 41.7561 266.126C66.189 266.126 90.7841 266.126 115.669 266.126C111.734 288.518 107.851 310.615 103.869 333.28C105.808 333.28 107.423 333.28 109.038 333.28C137.536 333.282 166.042 332.852 194.53 333.412C220.159 333.917 237.037 316.034 240.483 295.519C249.916 239.366 260.108 183.34 270.011 127.265C270.647 123.665 271.375 120.082 272.185 115.836C280.733 115.836 289.192 115.821 297.652 115.838C333.117 115.91 368.582 116.057 404.047 116.054C456.665 116.049 509.296 115.198 561.9 116.054C635.847 117.256 693.047 171.48 703.026 239.342C714.356 316.394 666.316 385.897 590.429 403.472C573.014 407.505 555.336 406.764 537.697 406.772C477.039 406.802 416.38 406.761 355.721 406.746C353.91 406.746 352.099 406.746 349.352 406.746C359.011 351.887 368.575 297.569 378.178 243.03C402.849 243.03 427.275 243.03 452.516 243.03C447.239 273.137 442.008 302.981 436.697 333.284C438.188 333.284 439.153 333.284 440.118 333.284C479.615 333.289 519.112 333.25 558.61 333.313C594.109 333.37 619.753 309.762 628.32 282.68C642.335 238.377 609.653 190.715 563.305 189.899C511.994 188.996 460.658 189.438 409.332 189.336C386.001 189.289 362.669 189.343 339.337 189.351C337.526 189.351 335.715 189.351 333.483 189.351C331.269 201.89 329.103 214.124 326.951 226.36C321.875 255.213 317.27 284.159 311.634 312.902C301.248 365.864 257.528 403.645 202.855 406.483C180.449 407.646 157.936 406.77 135.472 406.795C123.481 406.808 111.49 406.764 98.9991 406.746Z" fill="#E11D48"/>
</svg>
